<?xml version="1.0" encoding="UTF-8"?>
<svg id="Layer_2" data-name="Layer 2" xmlns="http://www.w3.org/2000/svg" viewBox="0 0 507.47 134.39">
  <defs>
    <style>
      .cls-1 {
        fill: #74d900;
      }

      .cls-2 {
        fill: #364958;
      }

      .cls-3 {
        fill: #918b76;
      }

      .cls-4 {
        fill: #d3dc2c;
      }
    </style>
  </defs>
  <g id="Layer_2-2" data-name="Layer 2">
    <g id="logo-light">
      <g>
        <path class="cls-4" d="M81.31,116.42c-.06.31-.12.46-.26.56-.14.1-.45.39-.45.39-.26.67-.52,1.33-1,2.56"/>
        <path class="cls-3" d="M84.76,112.2c2.45-3.58,1.28-1.81,3.34-5.33-2.26-1.36-3.74-1.51-5.54-2.5-3.08-1.7-6.24-3.26-9.3-4.99-3.49-1.96-4.08-5.98-1.23-8.78,3.74-3.66,8.38-5.77,13.55-6.04,15.67-.82,27.89,5.47,36.42,18.67,2.36,3.65,3.53,7.76,3.47,12.21-.1,7.69-4.18,13.94-11.35,16.77-9.12,3.61-18.12,2.47-26.7-1.57-14.45-6.81-22.43-18.48-24.29-34.32-.39-3.35.19-6.68,1.71-10.09,1.23.4,2.31.75,3.46,1.12-.65,4.44-1.73,8.65.07,13.46,2,7.7,5.14,13.98,11.22,19.1.15-.38,2.72-4.03,2.9-4.28.46-.62.69-1.2,1.14-1.8,0,0,.52-.74.52-.74.07-.04.61-.91.61-.91ZM116.42,127.07s2.9-2.35,3.85-3.52c2.6-4.69,2.66-11.32-.42-16.33-4.59-7.48-7-12.1-16.69-15.27-.26-.09-.45-.23-.67-.32-.95-.41-2.11-.17-2.74.65-.07.09-.13.19-.17.32-.18.58-.37,1.15-.59,1.72-.31.8-.55,1.84-.76,2.44-2.25,6.38-5.66,12.13-9.48,17.65-1.88,2.72-3.79,5.43-5.8,8.31,7.1,5.54,14.97,7.89,23.59,6.79,2.78-.36,4.51-.26,7.78-1.57,0,0,2.08-1.06,2.09-.88ZM92.66,88.44c-6.93-.75-13.08.67-18.42,6.53,5.02,2.74,9.37,5.58,14.53,7.66.45.31.89.61,1.79,1.23,1.99-4.88,3.84-9.42,5.86-14.35-.66-.33-1.36-.79-3.75-1.07Z"/>
        <path class="cls-1" d="M48.98,111.34c2.82-5.28,2.65-10.61.46-16.61-14.81,11.96-31.57,11.45-49.44,9.65,8.1-6.56,16.16-11.64,25.14-15.19,5.31-2.1,10.79-3.38,16.57-2.87,5.65.49,10.09,3.12,12.25,8.32,1.25,3,1.62,6.55,1.63,9.85,0,6.5-3.16,11.68-7.8,16.06-4.31,4.06-9.3,6.92-15.04,8.9-.94-3.78.61-7.06,1.63-10.33,2.25-7.2,6.12-13.36,12.4-17.76.58-.4,1.5-.31,2.29.18-.21,1.63-.21,2.8-.76,3.6-1.2,1.75-2.72,3.27-4.04,4.94-2.83,3.57-4.67,7.63-5.56,12.32.71-.64,1.43-1.28,2.34-2.01.51-.22.66-.45.61-.79-.03,0-.03.07.26.06.73-.34,1.17-.67,1.58-.99-.04,0-.04.07.22-.03.72-.67,1.19-1.24,1.62-1.8-.03,0-.03.06.24-.07,1.34-1.91,2.4-3.69,3.44-5.47-.03,0-.04.06-.04.06ZM33.61,91.07c-7.68,1.68-14.44,5.33-20.79,10.07,1.49-.12,2.98-.23,5.31-.09,9.84-.54,19.36-2,27.51-9.21-4.04-2.31-7.62-2.26-12.03-.77Z"/>
        <path class="cls-1" d="M51.81,17.1c1.8-5.75,3.52-11.12,5.44-17.1.81.83,1.28,1.13,1.49,1.56,7.45,15.17,12.35,31.01,12.07,48.11-.16,9.45-1.94,18.57-6.64,26.92-1.73,3.07-3.69,5.94-7.16,7.9-1.09-2.22-1.01-4.13.38-5.95-10.16-14.15-11.27-29.9-8.82-46.25.75-4.98,2.1-9.88,3.24-15.18ZM53.73,27.25c-.44,2.85-.94,5.69-1.32,8.55-1.42,10.57-.89,20.98,3.15,30.97,1.11,2.74,2.73,5.27,4.12,7.89.37-.06.74-.12,1.11-.19.31-1.21.63-2.43,1.56-3.93,2.63-5.92,3.8-12.22,4.03-18.6.18-5.01-.38-10.06-.8-15.07-.69-8.27-3.33-16.04-6.31-23.7-.19-.5-.55-.94-1.23-2.08-2.05,5.48-3.38,10.36-4.32,16.15Z"/>
        <path class="cls-1" d="M35.69,60.1c7.05,4.32,12.74,9.57,17.14,16.24,2.65,4.02,2.53,7.99.5,12.31-.71-.17-1.6-.13-1.79-.47-1.79-3.31-5.14-3.16-8.14-3.95-8.8-2.32-16.19-7.13-22.83-13.24-6.59-6.07-13.11-14.63-16.58-22.05,11.41,1.81,21.81,5.2,31.69,11.16ZM13.93,55.57c-.19.05-.37.1-.56.14.22.06.45.13.46.84,5.75,8.69,13.28,15.51,22.42,20.35,3.68,1.95,7.99,2.68,12.04,3.89.17.05.58-.66.8-1.68-.35-.81-.58-1.71-1.07-2.43-4.76-6.94-11.51-11.49-18.79-15.3-3.04-1.59-5.9-3.8-9.98-4.23-1.75-.4-3.5-.79-5.31-1.59Z"/>
        <path class="cls-1" d="M97.64,51.24c5.6-1.97,10.88-3.82,16.15-5.68.18.32.36.64.54.95-8,14.94-17.15,28.9-33.43,36.22-3.27,1.47-6.99,2.08-10.58,2.68-3.05.51-5.72-.63-7.58-3.26.06-.33,0-.77.18-.91,3.02-2.24,4.33-5.65,6.17-8.73,4.13-6.93,10.41-11.58,17.17-15.58,3.54-2.1,7.36-3.74,11.38-5.7ZM80.3,67.01s0-.06-.63,0c-6,4.82-9.18,9.77-9.06,14.29.44-.16.82-.31,1.99-.41,2.45-.71,5.05-1.1,7.33-2.18,10.06-4.77,17.26-12.71,23.35-21.8.69-1.03,1.21-2.17,2.33-4.2-6.31,2.14-11.46,4.13-16.65,7.73-2.91,2.19-5.81,4.38-8.66,6.57Z"/>
      </g>
      <g>
        <path class="cls-2" d="M147.71,65.99c.11-1.71.17-3.48.28-5.19h-.34c-1.14,1.54-2.34,3.08-3.48,4.62l-13.45,16.02h25.25v1.65h-28.05v-.97l20.64-24.4h.86v36.54h-1.71v-28.28Z"/>
        <path class="cls-2" d="M163.78,84.23v-15.62h-8.44v-1.37l8.44-.23.23-9.12h1.48v9.12h14.94v1.6h-14.94v15.85c0,5.47,1.48,8.89,7.87,8.89,2.96,0,5.24-.57,7.52-1.48l.57,1.37c-2.51,1.03-4.9,1.71-8.21,1.71-7.3,0-9.46-4.33-9.46-10.72Z"/>
        <path class="cls-2" d="M184.3,67.02h1.94l4.73,18.36c.63,2.51,1.25,4.79,1.77,7.18h.23c.63-2.39,1.25-4.67,1.88-7.18l4.73-18.36h2.39l4.73,18.36c.63,2.51,1.25,4.79,1.88,7.18h.23c.63-2.39,1.25-4.67,1.82-7.18l4.67-18.36h1.82l-7.3,27.25h-2.39l-4.67-17.79c-.68-2.62-1.2-5.13-1.94-7.75h-.23c-.63,2.62-1.14,5.25-1.94,7.87l-4.56,17.67h-2.39l-7.41-27.25Z"/>
        <path class="cls-2" d="M218.95,80.7c0-8.89,6.5-14.37,13.57-14.37s12.08,4.67,12.08,12.54c0,.57,0,1.14-.11,1.82h-24.97v-1.6h24.51l-1.03.91c0-8.21-4.33-12.08-10.49-12.08s-11.74,4.67-11.74,12.66,5.82,12.77,12.43,12.77c3.88,0,6.9-1.25,9.46-3.08l.8,1.48c-2.39,1.54-5.3,3.19-10.26,3.19-7.75,0-14.25-5.36-14.25-14.25Z"/>
        <path class="cls-2" d="M251.44,67.02h1.48l.23,5.47h.23c3.25-3.54,6.5-6.16,10.95-6.16,6.67,0,9.92,3.48,9.92,10.95v16.99h-1.71v-16.76c0-6.44-2.45-9.58-8.21-9.58-4.1,0-6.96,2.17-11.17,6.61v19.72h-1.71v-27.25Z"/>
        <path class="cls-2" d="M284.62,84.23v-15.62h-8.44v-1.37l8.44-.23.23-9.12h1.48v9.12h14.94v1.6h-14.94v15.85c0,5.47,1.48,8.89,7.87,8.89,2.96,0,5.24-.57,7.52-1.48l.57,1.37c-2.51,1.03-4.9,1.71-8.21,1.71-7.3,0-9.46-4.33-9.46-10.72Z"/>
        <path class="cls-2" d="M305.99,106.35l.57-1.6c.68.23,1.71.46,2.74.46,4.39,0,7.18-3.31,8.95-7.75l1.03-2.51-13.45-27.93h1.82l8.44,17.9c1.08,2.28,2.51,5.24,3.88,7.64h.23c1.14-2.39,2.34-5.36,3.31-7.64l7.52-17.9h1.71l-13.11,31.12c-1.48,4.22-4.9,8.78-10.49,8.78-1.03,0-2.39-.23-3.14-.57Z"/>
        <path class="cls-1" d="M329.99,91.64c0-2.17,1.48-3.31,2.96-3.31s2.96,1.14,2.96,3.31-1.48,3.31-2.96,3.31-2.96-1.14-2.96-3.31Z"/>
        <path class="cls-2" d="M339.22,80.7c0-8.78,6.1-14.37,13-14.37,3.48,0,6.38,1.48,9.24,3.99h.11l-.11-5.7v-11.52h1.71v41.16h-1.48l-.23-4.22h-.11c-2.45,2.57-6.04,4.9-10.03,4.9-7.18,0-12.08-5.02-12.08-14.25ZM361.45,88v-15.73c-3.31-3.13-6.33-4.33-9.35-4.33-6.16,0-11.06,5.7-11.06,12.77,0,7.52,3.88,12.66,10.38,12.66,3.36,0,6.78-1.94,10.03-5.36Z"/>
        <path class="cls-2" d="M368.29,80.7c0-8.89,6.5-14.37,13.57-14.37s12.09,4.67,12.09,12.54c0,.57,0,1.14-.11,1.82h-24.97v-1.6h24.51l-1.03.91c0-8.21-4.33-12.08-10.49-12.08s-11.74,4.67-11.74,12.66,5.81,12.77,12.43,12.77c3.88,0,6.9-1.25,9.46-3.08l.8,1.48c-2.39,1.54-5.3,3.19-10.26,3.19-7.75,0-14.25-5.36-14.25-14.25Z"/>
        <path class="cls-2" d="M397.13,67.02h1.82l7.98,17.67c1.25,2.74,2.45,5.36,3.53,7.75h.23c1.08-2.39,2.17-5.02,3.42-7.75l7.98-17.67h1.71l-12.43,27.25h-1.71l-12.54-27.25Z"/>
      </g>
    </g>
  </g>
</svg>